<svg width="38" height="38" viewBox="0 0 38 38" fill="none" xmlns="http://www.w3.org/2000/svg">
<path d="M6.33334 28.5C5.88473 28.5 5.50842 28.348 5.20442 28.044C4.90042 27.74 4.74895 27.3642 4.75001 26.9167C4.75001 26.4681 4.90201 26.0918 5.20601 25.7878C5.51001 25.4838 5.88578 25.3323 6.33334 25.3333H31.6667C32.1153 25.3333 32.4916 25.4853 32.7956 25.7893C33.0996 26.0933 33.2511 26.4691 33.25 26.9167C33.25 27.3653 33.098 27.7416 32.794 28.0456C32.49 28.3496 32.1142 28.5011 31.6667 28.5H6.33334ZM6.33334 20.5833C5.88473 20.5833 5.50842 20.4313 5.20442 20.1273C4.90042 19.8233 4.74895 19.4476 4.75001 19C4.75001 18.5514 4.90201 18.1751 5.20601 17.8711C5.51001 17.5671 5.88578 17.4156 6.33334 17.4167H31.6667C32.1153 17.4167 32.4916 17.5687 32.7956 17.8727C33.0996 18.1767 33.2511 18.5524 33.25 19C33.25 19.4486 33.098 19.8249 32.794 20.1289C32.49 20.4329 32.1142 20.5844 31.6667 20.5833H6.33334ZM6.33334 12.6667C5.88473 12.6667 5.50842 12.5147 5.20442 12.2107C4.90042 11.9067 4.74895 11.5309 4.75001 11.0833C4.75001 10.6347 4.90201 10.2584 5.20601 9.95442C5.51001 9.65042 5.88578 9.49894 6.33334 9.5H31.6667C32.1153 9.5 32.4916 9.652 32.7956 9.956C33.0996 10.26 33.2511 10.6358 33.25 11.0833C33.25 11.5319 33.098 11.9082 32.794 12.2122C32.49 12.5162 32.1142 12.6677 31.6667 12.6667H6.33334Z" fill="#484868"/>
</svg>
