<svg width="68" height="69" viewBox="0 0 68 69" fill="none" xmlns="http://www.w3.org/2000/svg">
<g clip-path="url(#clip0_291_167)">
<path d="M1.45133 34.0868C1.44973 39.8842 2.95423 45.5449 5.81502 50.5343L1.17773 67.5815L18.505 63.0072C23.2975 65.634 28.6671 67.0105 34.1237 67.0108H34.1381C52.1514 67.0108 66.8147 52.2526 66.8224 34.1128C66.8259 25.3228 63.4291 17.0572 57.2575 10.8387C51.0871 4.62064 42.8806 1.19444 34.1368 1.19043C16.1213 1.19043 1.45903 15.9479 1.45159 34.0868" fill="url(#paint0_linear_291_167)"/>
<path d="M0.284219 34.0764C0.282359 40.0823 1.84078 45.9454 4.80356 51.1135L0 68.7719L17.9485 64.0336C22.894 66.7484 28.462 68.1798 34.1278 68.1819H34.1424C52.802 68.1819 67.992 52.8928 68 34.1037C68.0032 24.9978 64.4842 16.4351 58.0922 9.99377C51.6994 3.55323 43.1994 0.00374419 34.1424 0C15.4796 0 0.291656 15.287 0.284219 34.0764ZM10.973 50.2234L10.3028 49.1523C7.48558 44.6422 5.99861 39.4303 6.00073 34.0785C6.00684 18.4612 18.6304 5.75535 34.153 5.75535C41.6702 5.75856 48.7347 8.70898 54.0483 14.0621C59.3616 19.4157 62.2853 26.5324 62.2835 34.1015C62.2766 49.7188 49.6527 62.4263 34.1424 62.4263H34.1312C29.0809 62.4236 24.1278 61.058 19.8082 58.4775L18.7802 57.8637L8.12919 60.6753L10.973 50.2232V50.2234Z" fill="url(#paint1_linear_291_167)"/>
<path d="M25.6802 19.8304C25.0464 18.4122 24.3794 18.3836 23.7767 18.3587C23.2832 18.3373 22.719 18.3389 22.1554 18.3389C21.5912 18.3389 20.6745 18.5526 19.8997 19.4044C19.124 20.257 16.9385 22.3174 16.9385 26.5079C16.9385 30.6987 19.9701 34.7486 20.3927 35.3174C20.8158 35.8852 26.2452 44.76 34.844 48.1742C41.9904 51.0115 43.4447 50.4472 44.9956 50.3049C46.5469 50.1631 50.0011 48.245 50.7058 46.2561C51.411 44.2674 51.411 42.5627 51.1996 42.2065C50.9881 41.8516 50.424 41.6384 49.5779 41.2127C48.7317 40.7866 44.5725 38.726 43.7971 38.4417C43.0215 38.1577 42.4576 38.0159 41.8934 38.8688C41.3292 39.7203 39.7092 41.6384 39.2154 42.2065C38.7221 42.7759 38.2283 42.8467 37.3826 42.4207C36.536 41.9933 33.8115 41.095 30.5791 38.1935C28.0642 35.9358 26.3663 33.1477 25.8728 32.2948C25.3792 31.4433 25.8199 30.9817 26.2441 30.5572C26.6242 30.1756 27.0904 29.5626 27.5138 29.0655C27.9356 28.568 28.0764 28.2131 28.3585 27.6451C28.6409 27.0765 28.4995 26.579 28.2884 26.153C28.0764 25.727 26.4324 21.5145 25.6802 19.8304Z" fill="white"/>
</g>
<defs>
<linearGradient id="paint0_linear_291_167" x1="3283.41" y1="6640.3" x2="3283.41" y2="1.19043" gradientUnits="userSpaceOnUse">
<stop stop-color="#1FAF38"/>
<stop offset="1" stop-color="#60D669"/>
</linearGradient>
<linearGradient id="paint1_linear_291_167" x1="3400" y1="6877.19" x2="3400" y2="0" gradientUnits="userSpaceOnUse">
<stop stop-color="#F9F9F9"/>
<stop offset="1" stop-color="white"/>
</linearGradient>
<clipPath id="clip0_291_167">
<rect width="68" height="69" fill="white"/>
</clipPath>
</defs>
</svg>
