<svg width="24" height="24" viewBox="0 0 24 24" fill="none" xmlns="http://www.w3.org/2000/svg">
<path d="M10.6005 19.389C10.4749 19.8848 10.4667 20.403 10.5765 20.9025C6.732 20.3595 4.5 17.646 4.5 15V14.25C4.5 13.6533 4.73705 13.081 5.15901 12.659C5.58097 12.2371 6.15326 12 6.75 12H15.7845C15.807 12.5325 15.975 13.0515 16.2765 13.5H6.75C6.55109 13.5 6.36032 13.579 6.21967 13.7197C6.07902 13.8603 6 14.0511 6 14.25V15C6 16.8795 7.632 18.9 10.6005 19.389ZM12 2.25C13.094 2.25 14.1432 2.6846 14.9168 3.45818C15.6904 4.23177 16.125 5.28098 16.125 6.375C16.125 7.46902 15.6904 8.51823 14.9168 9.29182C14.1432 10.0654 13.094 10.5 12 10.5C10.906 10.5 9.85677 10.0654 9.08318 9.29182C8.3096 8.51823 7.875 7.46902 7.875 6.375C7.875 5.28098 8.3096 4.23177 9.08318 3.45818C9.85677 2.6846 10.906 2.25 12 2.25ZM12 3.75C11.3038 3.75 10.6361 4.02656 10.1438 4.51884C9.65156 5.01113 9.375 5.67881 9.375 6.375C9.375 7.07119 9.65156 7.73887 10.1438 8.23116C10.6361 8.72344 11.3038 9 12 9C12.6962 9 13.3639 8.72344 13.8562 8.23116C14.3484 7.73887 14.625 7.07119 14.625 6.375C14.625 5.67881 14.3484 5.01113 13.8562 4.51884C13.3639 4.02656 12.6962 3.75 12 3.75ZM17.376 11.3715L17.8005 10.2465C18.1875 9.2265 19.3935 8.7225 20.4105 9.156L20.9925 9.405C21.702 9.708 22.29 10.257 22.413 10.995C23.0985 15.0825 19.551 20.8965 15.468 22.38C14.73 22.647 13.932 22.44 13.3005 22.011L12.7815 21.6585C12.5684 21.515 12.389 21.3269 12.2557 21.1073C12.1223 20.8878 12.0382 20.6418 12.0091 20.3866C11.98 20.1313 12.0066 19.8728 12.0872 19.6288C12.1677 19.3849 12.3002 19.1613 12.4755 18.9735L13.293 18.063C13.4846 17.851 13.7296 17.6943 14.0024 17.6091C14.2751 17.5238 14.5658 17.5133 14.844 17.5785L16.6815 18.0135C18.138 17.103 18.9195 15.8235 19.0245 14.1735L17.7075 12.8835C17.5103 12.6916 17.3738 12.446 17.3148 12.1772C17.2559 11.9085 17.2772 11.6283 17.376 11.3715Z" fill="white"/>
</svg>
