<svg width="24" height="24" viewBox="0 0 24 24" fill="none" xmlns="http://www.w3.org/2000/svg">
<path d="M12 19H14V6.00001L20.394 8.74001C20.574 8.81717 20.7274 8.94549 20.8351 9.10903C20.9428 9.27258 21.0002 9.46416 21 9.66001V19H23V21H1V19H3V5.65001C2.99998 5.45652 3.05608 5.26719 3.16151 5.10496C3.26695 4.94272 3.41718 4.81456 3.594 4.73601L11.297 1.31301C11.3731 1.27919 11.4565 1.26492 11.5395 1.27151C11.6226 1.2781 11.7027 1.30533 11.7725 1.35074C11.8424 1.39614 11.8998 1.45827 11.9395 1.53149C11.9792 1.60472 12 1.6867 12 1.77001V19Z" fill="white"/>
</svg>
