<svg width="28" height="28" viewBox="0 0 28 28" fill="none" xmlns="http://www.w3.org/2000/svg">
<path d="M12.4251 18.375L18.1126 14.7291C18.3848 14.5541 18.5209 14.3111 18.5209 14C18.5209 13.6889 18.3848 13.4458 18.1126 13.2708L12.4251 9.62497C12.1334 9.43053 11.8367 9.41575 11.5349 9.58064C11.2332 9.74553 11.0827 10.0034 11.0834 10.3541V17.6458C11.0834 17.9958 11.2343 18.2536 11.5361 18.4193C11.8379 18.585 12.1342 18.5702 12.4251 18.375ZM3.52926 15.1666C3.85982 15.1666 4.15654 15.2736 4.41943 15.4875C4.68232 15.7014 4.86198 15.9736 4.95843 16.3041C5.0751 16.7514 5.21626 17.1745 5.38193 17.5735C5.5476 17.9725 5.73698 18.366 5.9501 18.7541C6.1251 19.0458 6.19821 19.3569 6.16943 19.6875C6.14065 20.018 6.00921 20.3 5.7751 20.5333C5.56121 20.7472 5.29871 20.8444 4.9876 20.825C4.67649 20.8055 4.43343 20.6694 4.25843 20.4166C3.83065 19.8139 3.47093 19.1671 3.17926 18.4765C2.8876 17.7858 2.66398 17.0714 2.50843 16.3333C2.4501 16.0222 2.52321 15.75 2.72776 15.5166C2.93232 15.2833 3.19949 15.1666 3.52926 15.1666ZM5.7751 7.46664C6.00843 7.69997 6.13482 7.98192 6.15426 8.31247C6.17371 8.64303 6.10565 8.94442 5.9501 9.21664C5.73621 9.60553 5.54682 10.0041 5.38193 10.4125C5.21704 10.8208 5.07587 11.2486 4.95843 11.6958C4.86121 12.0264 4.68115 12.2986 4.41826 12.5125C4.15537 12.7264 3.85943 12.8333 3.53043 12.8333C3.19987 12.8333 2.93271 12.7116 2.72893 12.4681C2.52515 12.2247 2.46176 11.9478 2.53876 11.6375C2.69432 10.8986 2.91793 10.1842 3.2096 9.49431C3.50126 8.80442 3.85126 8.15769 4.2596 7.55414C4.4346 7.30136 4.67765 7.17031 4.98876 7.16097C5.29987 7.15164 5.56237 7.25353 5.77626 7.46664H5.7751ZM7.40843 22.1958C7.64176 21.943 7.92876 21.8069 8.26943 21.7875C8.6101 21.768 8.92587 21.8458 9.21676 22.0208C9.60565 22.2347 9.99921 22.4291 10.3974 22.6041C10.7957 22.7791 11.209 22.925 11.6376 23.0416C11.9682 23.1389 12.2404 23.3139 12.4543 23.5666C12.6682 23.8194 12.7751 24.1111 12.7751 24.4416C12.7751 24.7722 12.6534 25.0347 12.4099 25.2291C12.1665 25.4236 11.8896 25.4916 11.5793 25.4333C10.8404 25.2778 10.145 25.0541 9.49326 24.7625C8.84149 24.4708 8.20487 24.1305 7.58343 23.7416C7.31121 23.5666 7.16032 23.3236 7.13076 23.0125C7.10121 22.7014 7.19376 22.4291 7.40843 22.1958ZM12.8334 3.55831C12.8334 3.88886 12.7312 4.18053 12.5266 4.43331C12.322 4.68608 12.0549 4.86108 11.7251 4.95831C11.2779 5.07497 10.8501 5.21614 10.4418 5.38181C10.0334 5.54747 9.63482 5.74658 9.24593 5.97914C8.95426 6.15414 8.63849 6.22725 8.2986 6.19847C7.95871 6.1697 7.67171 6.03825 7.4376 5.80414C7.20426 5.57081 7.10198 5.29392 7.13076 4.97347C7.15954 4.65303 7.31043 4.40492 7.58343 4.22914C8.20565 3.84025 8.85237 3.50464 9.5236 3.22231C10.1948 2.93997 10.8991 2.72142 11.6364 2.56664C11.9475 2.50831 12.2248 2.57636 12.4683 2.77081C12.7117 2.96525 12.8334 3.22775 12.8334 3.55831ZM23.3334 14C23.3334 11.8028 22.6575 9.86297 21.3058 8.18064C19.954 6.49831 18.2285 5.40475 16.1293 4.89997C15.8376 4.8222 15.6043 4.65692 15.4293 4.40414C15.2543 4.15136 15.1668 3.86942 15.1668 3.55831C15.1668 3.2472 15.2737 2.98975 15.4876 2.78597C15.7015 2.5822 15.9445 2.50908 16.2168 2.56664C18.939 3.11108 21.1945 4.44303 22.9834 6.56247C24.7723 8.68192 25.6668 11.1611 25.6668 14C25.6668 16.8389 24.7723 19.318 22.9834 21.4375C21.1945 23.5569 18.939 24.8889 16.2168 25.4333C15.9445 25.4916 15.7015 25.4185 15.4876 25.214C15.2737 25.0094 15.1668 24.752 15.1668 24.4416C15.1668 24.1305 15.2543 23.8486 15.4293 23.5958C15.6043 23.343 15.8376 23.1777 16.1293 23.1C18.2293 22.5944 19.9552 21.5005 21.3069 19.8181C22.6587 18.1358 23.3342 16.1964 23.3334 14Z" fill="#484868"/>
</svg>
