<svg width="32" height="32" viewBox="0 0 32 32" fill="none" xmlns="http://www.w3.org/2000/svg">
<path d="M21 3.03101L20.344 3.75001C18.875 5.36701 17.664 6.09001 16.656 6.56301C15.648 7.03501 14.801 7.17601 13.969 7.81301C13.082 8.49301 11.793 9.79701 11.25 12.125C10.086 12.379 9.234 12.825 8.562 13.406C7.898 13.98 7.398 14.633 6.782 15.344C6.777 15.352 6.785 15.367 6.782 15.375C5.898 16.391 5.125 17.485 3.625 18.063L3 18.313V29H22.063C23.156 28.941 23.914 28.184 24.375 27.437C24.835 26.691 25.09 25.883 25.219 25.219C25.551 23.527 26.156 18.656 26.156 18.656L26.188 18.563V18.469C26.156 17.793 25.878 17.219 25.531 16.687L26.656 13.344L28.438 10.656L28.938 9.93701L28.281 9.34401L21.719 3.65601L21 3.03101ZM21.063 5.78101L26.281 10.313L24.906 12.343L24.813 12.438L24.781 12.594L23.875 15.281C23.402 15.086 22.915 14.949 22.375 14.969H22.312L16 15H15V18.875C14.86 19.965 14.254 20.387 13.5 20.688C13.25 20.789 13.219 20.734 13 20.781V14.97C12.836 11.263 14.156 10.196 15.188 9.40701C15.473 9.18801 16.308 8.93501 17.5 8.37601C18.496 7.90701 19.734 7.06601 21.063 5.78101ZM11.063 14.375C11.059 14.602 10.988 14.762 11 15V23H12C12 23 13.07 22.988 14.219 22.531C15.367 22.074 16.754 21.004 17 19.125V17L22.375 16.969H22.406C22.845 16.945 23.2756 17.0958 23.6036 17.3886C23.9316 17.6813 24.1302 18.0921 24.156 18.531C24.152 18.547 24.106 18.918 24.094 19H20V21H23.844C23.738 21.773 23.641 22.258 23.531 23H20V25H23.219C23.1008 25.4838 22.9111 25.9473 22.656 26.375C22.383 26.82 22.148 26.988 21.938 27H5V19.531C6.621 18.671 7.629 17.434 8.281 16.688C8.957 15.914 9.421 15.328 9.875 14.938C10.172 14.684 10.637 14.539 11.063 14.375Z" fill="white"/>
</svg>
